<mxfile host="app.diagrams.net" modified="2021-06-29T06:01:34.743Z" agent="5.0 (Windows NT 10.0; WOW64) AppleWebKit/537.36 (KHTML, like Gecko) Chrome/91.0.4472.114 Safari/537.36" etag="DW-zpBa6yjrSWZBUh_KN" version="14.7.0" type="github">
  <diagram name="Page-1" id="13e1069c-82ec-6db2-03f1-153e76fe0fe0">
    <mxGraphModel dx="1363" dy="752" grid="1" gridSize="10" guides="1" tooltips="1" connect="1" arrows="1" fold="1" page="1" pageScale="1" pageWidth="1654" pageHeight="1169" background="none" math="0" shadow="0">
      <root>
        <mxCell id="0" />
        <mxCell id="1" parent="0" />
        <mxCell id="7baba1c4bc27f4b0-2" value="&lt;span style=&quot;font-size: 12px; text-align: left;&quot;&gt;SpringApplicationRunListener&lt;/span&gt;" style="shape=umlLifeline;perimeter=lifelinePerimeter;whiteSpace=wrap;html=1;container=1;collapsible=0;recursiveResize=0;outlineConnect=0;rounded=1;shadow=0;comic=0;labelBackgroundColor=none;strokeWidth=1;fontFamily=Times New Roman;fontSize=12;align=center;fillColor=#dae8fc;strokeColor=#6c8ebf;fontStyle=1" parent="1" vertex="1">
          <mxGeometry x="570" y="320" width="189" height="390" as="geometry" />
        </mxCell>
        <mxCell id="7baba1c4bc27f4b0-10" value="" style="html=1;points=[];perimeter=orthogonalPerimeter;rounded=0;shadow=0;comic=0;labelBackgroundColor=none;strokeWidth=1;fontFamily=Times New Roman;fontSize=12;align=center;fillColor=#dae8fc;strokeColor=#6c8ebf;fontStyle=1" parent="7baba1c4bc27f4b0-2" vertex="1">
          <mxGeometry x="89" y="100" width="10" height="230" as="geometry" />
        </mxCell>
        <mxCell id="7baba1c4bc27f4b0-3" value="&lt;h4 style=&quot;margin: 10px 0px; padding: 0px; font-size: 12px; color: rgb(51, 51, 51); text-align: left;&quot;&gt;&lt;span style=&quot;margin: 0px; padding: 0px; font-size: 12px;&quot;&gt;SimpleApplicationEventMulticaster&amp;nbsp;&lt;/span&gt;&lt;/h4&gt;" style="shape=umlLifeline;perimeter=lifelinePerimeter;whiteSpace=wrap;html=1;container=1;collapsible=0;recursiveResize=0;outlineConnect=0;rounded=1;shadow=0;comic=0;labelBackgroundColor=none;strokeWidth=1;fontFamily=Times New Roman;fontSize=12;align=center;fillColor=#dae8fc;strokeColor=#6c8ebf;fontStyle=1" parent="1" vertex="1">
          <mxGeometry x="840" y="320" width="240" height="390" as="geometry" />
        </mxCell>
        <mxCell id="7baba1c4bc27f4b0-13" value="" style="html=1;points=[];perimeter=orthogonalPerimeter;rounded=0;shadow=0;comic=0;labelBackgroundColor=none;strokeWidth=1;fontFamily=Times New Roman;fontSize=12;align=center;fillColor=#dae8fc;strokeColor=#6c8ebf;fontStyle=1" parent="7baba1c4bc27f4b0-3" vertex="1">
          <mxGeometry x="117" y="120" width="10" height="150" as="geometry" />
        </mxCell>
        <mxCell id="7baba1c4bc27f4b0-4" value="&lt;div style=&quot;margin-top: 0px; margin-bottom: 0px; padding: 0px; overflow: auto; overflow-wrap: break-word; text-align: left; font-size: 12px;&quot;&gt;&lt;span style=&quot;margin: 0px; padding: 0px; line-height: 1.5; font-size: 12px;&quot;&gt;ApplicationListener&lt;/span&gt;&lt;/div&gt;" style="shape=umlLifeline;perimeter=lifelinePerimeter;whiteSpace=wrap;html=1;container=1;collapsible=0;recursiveResize=0;outlineConnect=0;rounded=1;shadow=0;comic=0;labelBackgroundColor=none;strokeWidth=1;fontFamily=Times New Roman;fontSize=12;align=center;fillColor=#dae8fc;strokeColor=#6c8ebf;fontStyle=1" parent="1" vertex="1">
          <mxGeometry x="1174" y="320" width="100" height="380" as="geometry" />
        </mxCell>
        <mxCell id="7baba1c4bc27f4b0-8" value="&lt;h4 style=&quot;margin: 10px 0px; padding: 0px; font-size: 12px; color: rgb(51, 51, 51); text-align: left;&quot;&gt;&lt;span style=&quot;margin: 0px; padding: 0px; font-size: 12px;&quot;&gt;SpringApplicationRunListeners&lt;/span&gt;&lt;/h4&gt;" style="shape=umlLifeline;perimeter=lifelinePerimeter;whiteSpace=wrap;html=1;container=1;collapsible=0;recursiveResize=0;outlineConnect=0;rounded=1;shadow=0;comic=0;labelBackgroundColor=none;strokeWidth=1;fontFamily=Times New Roman;fontSize=12;align=center;fillColor=#dae8fc;strokeColor=#6c8ebf;fontStyle=1" parent="1" vertex="1">
          <mxGeometry x="240" y="322" width="270" height="388" as="geometry" />
        </mxCell>
        <mxCell id="7baba1c4bc27f4b0-9" value="" style="html=1;points=[];perimeter=orthogonalPerimeter;rounded=0;shadow=0;comic=0;labelBackgroundColor=none;strokeWidth=1;fontFamily=Times New Roman;fontSize=12;align=center;fillColor=#dae8fc;strokeColor=#6c8ebf;fontStyle=1" parent="7baba1c4bc27f4b0-8" vertex="1">
          <mxGeometry x="129" y="98" width="10" height="270" as="geometry" />
        </mxCell>
        <mxCell id="oif3Epdk1FFb_0PVmU3y-9" value="&lt;span style=&quot;font-size: 12px;&quot;&gt;执行starting()，遍历&lt;br style=&quot;font-size: 12px;&quot;&gt;&lt;/span&gt;&lt;div style=&quot;margin-top: 0px; margin-bottom: 0px; padding: 0px; overflow: auto; overflow-wrap: break-word; text-align: left; font-size: 12px;&quot;&gt;&lt;span style=&quot;margin: 0px; padding: 0px; line-height: 1.5; font-size: 12px;&quot;&gt;&lt;span style=&quot;font-size: 12px;&quot;&gt;&lt;span style=&quot;margin: 0px; padding: 0px; line-height: 1.5; font-size: 12px;&quot;&gt;List&amp;lt;SpringApplicationRunListener&amp;gt;&lt;/span&gt;&lt;span style=&quot;margin: 0px; padding: 0px; line-height: 1.5; font-size: 12px;&quot;&gt;&lt;span style=&quot;margin: 0px; padding: 0px; line-height: 1.5; font-size: 12px;&quot;&gt;&amp;nbsp;listeners&lt;/span&gt;&lt;/span&gt;&lt;/span&gt;&lt;/span&gt;&lt;/div&gt;" style="text;html=1;strokeColor=none;fillColor=none;align=center;verticalAlign=middle;whiteSpace=wrap;rounded=0;fontFamily=Times New Roman;fontStyle=1;fontSize=12;" vertex="1" parent="7baba1c4bc27f4b0-8">
          <mxGeometry x="243" y="68" width="40" height="20" as="geometry" />
        </mxCell>
        <mxCell id="7baba1c4bc27f4b0-16" value="" style="html=1;points=[];perimeter=orthogonalPerimeter;rounded=0;shadow=0;comic=0;labelBackgroundColor=none;strokeWidth=1;fontFamily=Times New Roman;fontSize=12;align=center;fillColor=#dae8fc;strokeColor=#6c8ebf;fontStyle=1" parent="1" vertex="1">
          <mxGeometry x="1219" y="460" width="10" height="90" as="geometry" />
        </mxCell>
        <mxCell id="7baba1c4bc27f4b0-17" value="广播ApplicationStartingEvent事件&lt;br style=&quot;font-size: 12px&quot;&gt;&lt;div style=&quot;margin-top: 0px ; margin-bottom: 0px ; padding: 0px ; overflow: auto ; overflow-wrap: break-word ; font-size: 12px&quot;&gt;&lt;span style=&quot;margin: 0px ; padding: 0px ; line-height: 1.5 ; font-size: 12px&quot;&gt;multicastEvent()&lt;/span&gt;&lt;/div&gt;&lt;div style=&quot;margin-top: 0px ; margin-bottom: 0px ; padding: 0px ; overflow: auto ; overflow-wrap: break-word ; font-size: 12px&quot;&gt;获取对当前事件感兴趣的监听器列表，并遍历&lt;/div&gt;" style="html=1;verticalAlign=bottom;endArrow=block;labelBackgroundColor=none;fontFamily=Times New Roman;fontSize=12;edgeStyle=elbowEdgeStyle;elbow=vertical;align=center;fillColor=#dae8fc;strokeColor=#6c8ebf;fontStyle=1" parent="1" source="7baba1c4bc27f4b0-13" target="7baba1c4bc27f4b0-16" edge="1">
          <mxGeometry relative="1" as="geometry">
            <mxPoint x="993" y="460" as="sourcePoint" />
            <Array as="points">
              <mxPoint x="973" y="460" />
            </Array>
          </mxGeometry>
        </mxCell>
        <mxCell id="7baba1c4bc27f4b0-27" value="" style="html=1;verticalAlign=bottom;endArrow=open;dashed=1;endSize=8;labelBackgroundColor=none;fontFamily=Times New Roman;fontSize=12;fillColor=#dae8fc;strokeColor=#6c8ebf;fontStyle=1" parent="1" edge="1">
          <mxGeometry relative="1" as="geometry">
            <mxPoint x="379" y="649.5" as="targetPoint" />
            <mxPoint x="670" y="649" as="sourcePoint" />
            <Array as="points">
              <mxPoint x="630" y="649.5" />
            </Array>
          </mxGeometry>
        </mxCell>
        <mxCell id="7baba1c4bc27f4b0-30" value="" style="html=1;verticalAlign=bottom;endArrow=open;dashed=1;endSize=8;labelBackgroundColor=none;fontFamily=Times New Roman;fontSize=12;edgeStyle=elbowEdgeStyle;elbow=vertical;exitX=1.401;exitY=1.019;exitDx=0;exitDy=0;exitPerimeter=0;fillColor=#dae8fc;strokeColor=#6c8ebf;fontStyle=1" parent="1" source="7baba1c4bc27f4b0-13" edge="1">
          <mxGeometry relative="1" as="geometry">
            <mxPoint x="670" y="590" as="targetPoint" />
            <Array as="points">
              <mxPoint x="680" y="590" />
              <mxPoint x="960" y="590" />
              <mxPoint x="1580" y="600" />
              <mxPoint x="1660" y="580" />
              <mxPoint x="740" y="840" />
            </Array>
            <mxPoint x="940" y="590" as="sourcePoint" />
          </mxGeometry>
        </mxCell>
        <mxCell id="7baba1c4bc27f4b0-14" value="starting()" style="html=1;verticalAlign=bottom;endArrow=block;entryX=0;entryY=0;labelBackgroundColor=none;fontFamily=Times New Roman;fontSize=12;edgeStyle=elbowEdgeStyle;elbow=vertical;fillColor=#dae8fc;strokeColor=#6c8ebf;fontStyle=1" parent="1" source="7baba1c4bc27f4b0-10" target="7baba1c4bc27f4b0-13" edge="1">
          <mxGeometry relative="1" as="geometry">
            <mxPoint x="760" y="440" as="sourcePoint" />
          </mxGeometry>
        </mxCell>
        <mxCell id="7baba1c4bc27f4b0-35" value="&lt;div style=&quot;margin-top: 0px; margin-bottom: 0px; padding: 0px; overflow: auto; overflow-wrap: break-word; text-align: left; font-size: 12px;&quot;&gt;&lt;span style=&quot;margin: 0px; padding: 0px; line-height: 1.5; font-size: 12px;&quot;&gt;&lt;span style=&quot;margin: 0px; padding: 0px; line-height: 1.5; font-size: 12px;&quot;&gt;onApplicationEvent()&lt;/span&gt;&lt;/span&gt;&lt;/div&gt;" style="html=1;verticalAlign=bottom;endArrow=block;labelBackgroundColor=none;fontFamily=Times New Roman;fontSize=12;elbow=vertical;edgeStyle=orthogonalEdgeStyle;curved=1;exitX=1.038;exitY=0.345;exitPerimeter=0;fillColor=#dae8fc;strokeColor=#6c8ebf;fontStyle=1" parent="1" edge="1">
          <mxGeometry x="-0.2335" y="14" relative="1" as="geometry">
            <mxPoint x="1229.38" y="484.0999999999999" as="sourcePoint" />
            <mxPoint x="1224" y="522" as="targetPoint" />
            <Array as="points">
              <mxPoint x="1284" y="484" />
              <mxPoint x="1284" y="522" />
            </Array>
            <mxPoint x="-8" y="-12" as="offset" />
          </mxGeometry>
        </mxCell>
        <mxCell id="7baba1c4bc27f4b0-46" value="Spring Boot内置唯一实现&lt;br style=&quot;font-size: 12px;&quot;&gt;&lt;span style=&quot;font-size: 12px;&quot;&gt;EventPublishingRunListener&lt;/span&gt;" style="shape=note;whiteSpace=wrap;html=1;size=14;verticalAlign=top;align=center;spacingTop=-6;rounded=0;shadow=0;comic=0;labelBackgroundColor=none;strokeWidth=1;fontFamily=Times New Roman;fontSize=12;fillColor=#dae8fc;strokeColor=#6c8ebf;fontStyle=1" parent="1" vertex="1">
          <mxGeometry x="569" y="270" width="190" height="35" as="geometry" />
        </mxCell>
        <mxCell id="oif3Epdk1FFb_0PVmU3y-2" value="" style="endArrow=classic;html=1;fillColor=#dae8fc;strokeColor=#6c8ebf;fontFamily=Times New Roman;fontStyle=1;fontSize=12;" edge="1" parent="1" target="7baba1c4bc27f4b0-2">
          <mxGeometry width="50" height="50" relative="1" as="geometry">
            <mxPoint x="370" y="420" as="sourcePoint" />
            <mxPoint x="410" y="370" as="targetPoint" />
          </mxGeometry>
        </mxCell>
        <mxCell id="oif3Epdk1FFb_0PVmU3y-8" value="" style="html=1;verticalAlign=bottom;endArrow=open;dashed=1;endSize=8;labelBackgroundColor=none;fontFamily=Times New Roman;fontSize=12;edgeStyle=elbowEdgeStyle;elbow=vertical;fillColor=#dae8fc;strokeColor=#6c8ebf;fontStyle=1" edge="1" parent="1">
          <mxGeometry relative="1" as="geometry">
            <mxPoint x="970" y="550" as="targetPoint" />
            <Array as="points">
              <mxPoint x="1024" y="550" />
              <mxPoint x="1304" y="550" />
              <mxPoint x="1924" y="560" />
              <mxPoint x="2004" y="540" />
              <mxPoint x="1084" y="800" />
            </Array>
            <mxPoint x="1224" y="550" as="sourcePoint" />
          </mxGeometry>
        </mxCell>
        <mxCell id="oif3Epdk1FFb_0PVmU3y-11" value="&lt;font style=&quot;font-size: 12px&quot;&gt;监听&lt;span style=&quot;font-family: &amp;#34;times new roman&amp;#34; , &amp;#34;times&amp;#34; ; text-align: left&quot;&gt;ApplicationStartingEvent&amp;nbsp;事件的监听器&lt;/span&gt;&lt;/font&gt;" style="shape=note;whiteSpace=wrap;html=1;size=14;verticalAlign=top;align=center;spacingTop=-6;rounded=0;shadow=0;comic=0;labelBackgroundColor=none;strokeWidth=1;fontFamily=Times New Roman;fontSize=12;fillColor=#dae8fc;strokeColor=#6c8ebf;fontStyle=1" vertex="1" parent="1">
          <mxGeometry x="1129" y="272" width="190" height="35" as="geometry" />
        </mxCell>
      </root>
    </mxGraphModel>
  </diagram>
</mxfile>
